# xmcd
#
# Track frame offsets: 
#        180
#        16904
#        38060
#        80937
#        97732
#        111535
#        140009
#        155779
#        175249
#        193210
#        213110
#        253222
#
# Disc length: 3899 seconds
#
# Revision: 0
# Processed by: cddbd v1.5.2PL0 Copyright (c) Steve Scherf et al.
# Submitted via: ExactAudioCopy v0.99pb4
#
DISCID=ac0f390c
DTITLE=Big George And The Business  - Live in London
DYEAR=1993
DGENRE=Blues
TTITLE0=Victoria
TTITLE1=All Fools' Day
TTITLE2=So Many Roads
TTITLE3=I Gotta Tell You
TTITLE4=Late Last Night
TTITLE5=Madam George
TTITLE6=Whisky
TTITLE7=Roll The Dice
TTITLE8=I Got The Key
TTITLE9=Manish Boy
TTITLE10=I'd Rather Go Blind
TTITLE11=Tribiute to Jimi
EXTD=
EXTT0=
EXTT1=
EXTT2=
EXTT3=
EXTT4=
EXTT5=
EXTT6=
EXTT7=
EXTT8=
EXTT9=
EXTT10=
EXTT11=
PLAYORDER=
